# xmcd
#
# Track frame offsets:
# 150
# 23342
# 43997
# 64688
# 90175
# 112849
# 134289
# 155172
# 179821
# 201673
# 224348
# 248078
# 267208
# 290823
#
# Disc length: 4152 seconds
#
#
# Revision: 0
# Processed by: cddbd v1.4PL0 Copyright (c) Steve Scherf et al.
# Submitted via: FreeRIP 2.51 
#
DISCID=d210360e
DTITLE=许如芸 - 情歌精选
DYEAR=1999
DGENRE=Pop
TTITLE0=宁愿爱你
TTITLE1=深渊
TTITLE2=没有你的圣诞节
TTITLE3=我依然爱你
TTITLE4=泪海
TTITLE5=新世界
TTITLE6=完美
TTITLE7=如果云知道
TTITLE8=恒星
TTITLE9=爱只剩一秒
TTITLE10=日光机场
TTITLE11=舍不得
TTITLE12=真爱无敌
TTITLE13=独角戏
EXTD=
EXTT0=
EXTT1=
EXTT2=
EXTT3=
EXTT4=
EXTT5=
EXTT6=
EXTT7=
EXTT8=
EXTT9=
EXTT10=
EXTT11=
EXTT12=
EXTT13=
PLAYORDER=
